<svg width="127" height="38" viewBox="0 0 127 38" fill="none" xmlns="http://www.w3.org/2000/svg">
<path d="M0.164552 8.75731H6.40041V28.8691H0.164552V8.75731ZM6.60949 3.16667C6.60949 4.89352 5.29596 6.29233 3.24158 6.29233C1.27355 6.29233 -0.0399768 4.89352 0.000928982 3.16667C-0.0399768 1.35779 1.27355 0 3.28248 0C5.29141 0 6.56404 1.35779 6.60949 3.16667Z" fill="#E84F35"/>
<path d="M74.709 25.5246C74.709 23.2965 76.2316 21.6836 78.4178 21.6836C80.604 21.6836 82.0857 23.2555 82.0857 25.5246C82.0857 27.7162 80.5994 29.3246 78.3769 29.3246C76.2316 29.3246 74.709 27.7162 74.709 25.5246Z" fill="#E84F35"/>
<path d="M17.5494 14.0378C18.0857 14.1608 18.7447 14.2064 19.6492 14.2064C22.9898 14.2064 25.0488 12.5114 25.0488 9.66371C25.0488 7.10304 23.2762 5.57666 20.1446 5.57666C18.8674 5.57666 18.0039 5.69968 17.5494 5.8227V14.0378ZM11.3271 1.39848C13.2634 1.06587 15.9859 0.819824 19.8174 0.819824C23.6898 0.819824 26.4532 1.56251 28.3076 3.05244C30.0802 4.45579 31.2755 6.77042 31.2755 9.49968C31.2755 12.2244 30.3665 14.539 28.7212 16.1109C26.5759 18.134 23.408 19.0452 19.6947 19.0452C18.872 19.0452 18.1266 19.0042 17.5494 18.9222V28.8779H11.3271V1.39848Z" fill="#7B9AA9"/>
<path d="M45.0373 19.3275C41.7422 19.2865 39.1878 20.0702 39.1878 22.5078C39.1878 24.1162 40.2605 24.9044 41.6603 24.9044C43.2239 24.9044 44.5056 23.8747 44.9146 22.5944C44.9964 22.2663 45.0373 21.8927 45.0373 21.5191V19.3275ZM45.7782 28.8685L45.4055 26.8455H45.2828C43.9647 28.4584 41.9012 29.3241 39.5151 29.3241C35.4336 29.3241 33.002 26.3534 33.002 23.1275C33.002 17.8831 37.7016 15.3634 44.8283 15.4044V15.1174C44.8283 14.0421 44.251 12.5157 41.1604 12.5157C39.1015 12.5157 36.9153 13.2174 35.5972 14.0467L34.4427 10.0006C35.8426 9.21236 38.606 8.22363 42.2739 8.22363C48.9916 8.22363 51.1323 12.1922 51.1323 16.9399V23.9658C51.1323 25.9068 51.2141 27.7658 51.4186 28.8821H45.7782V28.8685Z" fill="#7B9AA9"/>
<path d="M60.2873 8.67041L63.2961 18.585C63.6233 19.7834 64.0369 21.2687 64.2824 22.344H64.4051C64.6914 21.2687 65.0232 19.7424 65.3096 18.585L67.7821 8.67041H74.4997L69.8047 21.9704C66.9185 29.985 64.9823 33.2064 62.7143 35.2294C60.5327 37.1294 58.2238 37.7901 56.6557 37.9997L55.3377 32.6733C56.1194 32.5503 57.1102 32.1766 58.0556 31.598C59.001 31.1013 60.0327 30.1126 60.6509 29.0783C60.8554 28.7913 60.9781 28.4587 60.9781 28.1716C60.9781 27.9666 60.9372 27.634 60.6872 27.1373L53.3105 8.67041H60.2873Z" fill="#7B9AA9"/>
<path d="M104.874 22.385C104.874 25.0277 104.956 27.1783 105.038 28.8687H99.5974L99.311 26.021H99.1883C98.4066 27.2603 96.5113 29.3244 92.8797 29.3244C88.8028 29.3244 85.7939 26.7637 85.7939 20.526V8.67041H92.098V19.5373C92.098 22.4716 93.0479 24.244 95.2295 24.244C96.9612 24.244 97.9475 23.0457 98.3611 22.057C98.5247 21.6834 98.5656 21.1913 98.5656 20.6946V8.67041H104.87V22.385H104.874Z" fill="#7B9AA9"/>
<path d="M120.614 19.3275C117.314 19.2865 114.76 20.0702 114.76 22.5078C114.76 24.1162 115.833 24.9044 117.233 24.9044C118.801 24.9044 120.078 23.8747 120.487 22.5944C120.569 22.2663 120.614 21.8927 120.614 21.5191V19.3275ZM121.36 28.8685L120.987 26.8455H120.864C119.546 28.4584 117.487 29.3241 115.096 29.3241C111.015 29.3241 108.588 26.3534 108.588 23.1275C108.588 17.8831 113.283 15.3634 120.414 15.4044V15.1174C120.414 14.0421 119.837 12.5157 116.746 12.5157C114.687 12.5157 112.501 13.2174 111.183 14.0467L110.029 10.0006C111.429 9.21236 114.192 8.22363 117.855 8.22363C124.573 8.22363 126.714 12.1922 126.714 16.9399V23.9658C126.714 25.9068 126.796 27.7658 127 28.8821H121.36V28.8685Z" fill="#7B9AA9"/>
</svg>
