<svg width="116" height="36" viewBox="0 0 116 36" fill="none" xmlns="http://www.w3.org/2000/svg">
<path d="M0.148207 8.833H5.80166V26.9134H0.148207V8.833ZM5.99121 3.80703C5.99121 5.35947 4.80035 6.61699 2.93785 6.61699C1.15363 6.61699 -0.0372197 5.35947 -0.000134345 3.80703C-0.0372197 2.18086 1.15363 0.960205 2.97493 0.960205C4.79623 0.960205 5.95 2.18086 5.99121 3.80703Z" fill="white"/>
<path d="M67.7266 23.9064C67.7266 21.9034 69.107 20.4534 71.089 20.4534C73.071 20.4534 74.4143 21.8665 74.4143 23.9064C74.4143 25.8767 73.0669 27.3226 71.0519 27.3226C69.107 27.3226 67.7266 25.8767 67.7266 23.9064Z" fill="white"/>
<path d="M15.9093 13.5804C16.3955 13.691 16.993 13.732 17.8129 13.732C20.8414 13.732 22.7079 12.2082 22.7079 9.64813C22.7079 7.3461 21.1009 5.97389 18.262 5.97389C17.1042 5.97389 16.3213 6.08448 15.9093 6.19508V13.5804ZM10.2686 2.21772C12.0238 1.9187 14.4919 1.69751 17.9654 1.69751C21.4759 1.69751 23.9811 2.36518 25.6622 3.70462C27.2691 4.96624 28.3528 7.04708 28.3528 9.50067C28.3528 11.9502 27.5287 14.031 26.0371 15.4442C24.0923 17.2629 21.2204 18.0821 17.8541 18.0821C17.1083 18.0821 16.4326 18.0452 15.9093 17.9715V26.9216H10.2686V2.21772Z" fill="white"/>
<path d="M40.8286 18.3361C37.8414 18.2992 35.5258 19.0037 35.5258 21.1952C35.5258 22.6411 36.4982 23.3498 37.7672 23.3498C39.1846 23.3498 40.3466 22.424 40.7174 21.273C40.7916 20.9781 40.8286 20.6422 40.8286 20.3063V18.3361ZM41.5003 26.9134L41.1624 25.0947H41.0511C39.8562 26.5448 37.9856 27.323 35.8224 27.323C32.1224 27.323 29.918 24.6523 29.918 21.7523C29.918 17.0376 34.1784 14.7724 40.6391 14.8093V14.5512C40.6391 13.5845 40.1158 12.2123 37.314 12.2123C35.4475 12.2123 33.4656 12.8431 32.2707 13.5886L31.2241 9.95126C32.4932 9.24262 34.9984 8.35376 38.3235 8.35376C44.4134 8.35376 46.354 11.9215 46.354 16.1897V22.506C46.354 24.2509 46.4282 25.9221 46.6136 26.9257H41.5003V26.9134Z" fill="white"/>
<path d="M54.6529 8.75537L57.3805 17.6686C57.6772 18.7459 58.0521 20.0812 58.2746 21.0479H58.3859C58.6455 20.0812 58.9463 18.709 59.2058 17.6686L61.4473 8.75537H67.5372L63.2809 20.712C60.6644 27.9172 58.9092 30.8131 56.8531 32.6318C54.8754 34.3399 52.7822 34.9339 51.3607 35.1223L50.1658 30.3339C50.8745 30.2233 51.7727 29.8874 52.6298 29.3672C53.4868 28.9207 54.4221 28.0318 54.9825 27.102C55.1679 26.844 55.2792 26.5449 55.2792 26.2869C55.2792 26.1026 55.2421 25.8035 55.0154 25.3571L48.3281 8.75537H54.6529Z" fill="white"/>
<path d="M95.0726 21.0848C95.0726 23.4605 95.1468 25.3939 95.2209 26.9136H90.2889L90.0293 24.3535H89.918C89.2093 25.4676 87.4912 27.3232 84.199 27.3232C80.5031 27.3232 77.7754 25.0212 77.7754 19.4135V8.75537H83.4903V18.5247C83.4903 21.1626 84.3515 22.756 86.3292 22.756C87.8991 22.756 88.7932 21.6787 89.1681 20.7898C89.3165 20.454 89.3536 20.0116 89.3536 19.5651V8.75537H95.0685V21.0848H95.0726Z" fill="white"/>
<path d="M109.342 18.3361C106.351 18.2992 104.035 19.0037 104.035 21.1952C104.035 22.6411 105.007 23.3498 106.276 23.3498C107.698 23.3498 108.856 22.424 109.227 21.273C109.301 20.9781 109.342 20.6422 109.342 20.3063V18.3361ZM110.018 26.9134L109.68 25.0947H109.569C108.374 26.5448 106.507 27.323 104.34 27.323C100.64 27.323 98.4395 24.6523 98.4395 21.7523C98.4395 17.0376 102.696 14.7724 109.161 14.8093V14.5512C109.161 13.5845 108.637 12.2123 105.835 12.2123C103.969 12.2123 101.987 12.8431 100.792 13.5886L99.7456 9.95126C101.015 9.24262 103.52 8.35376 106.841 8.35376C112.931 8.35376 114.871 11.9215 114.871 16.1897V22.506C114.871 24.2509 114.946 25.9221 115.131 26.9257H110.018V26.9134Z" fill="white"/>
</svg>
